<svg width="184" height="184" viewBox="0 0 184 184" fill="none" xmlns="http://www.w3.org/2000/svg">
<path d="M53.2178 148.849L124.025 107.304C126.951 105.595 126.583 102.611 123.208 100.641C119.824 98.6311 114.708 98.4602 111.772 100.169L40.9754 141.704C38.0492 143.412 38.4174 146.397 41.7916 148.367C45.1756 150.337 50.2916 150.558 53.2178 148.849Z" fill="#495F6E" fill-opacity="0.1"/>
<path d="M121.063 39.1991C116.123 38.267 111.315 40.8303 106.018 44.4776C92.3883 53.8187 84.9215 75.7226 89.3323 93.3917C92.0216 104.182 97.8788 109.531 105.631 111C105.386 111 95.0673 109.085 90.1574 107.961C82.8333 106.208 76.7723 99.6022 74.2053 89.1771C69.9371 71.5485 77.3631 49.6243 90.8195 40.2426C95.6989 36.8486 100.69 35.562 105.284 36.1293C107.882 36.4637 120.615 39.1282 121.063 39.1991Z" fill="#A6B8C4"/>
<path d="M116.826 107.008C103.42 114.333 96.9823 106.431 93.6411 103.817C94.8596 103.906 96.0845 103.845 97.2879 103.634C100.17 103.077 102.897 101.909 105.284 100.21C117.875 91.5579 124.771 71.1128 120.666 54.619C119.138 48.5402 116.286 43.7784 112.608 40.9214C120.065 41.428 128.662 43.5555 132.523 53.2107C140.621 73.5038 130.231 99.663 116.826 107.008Z" fill="#A6B8C4"/>
<path d="M135.732 57.8711C131.331 40.1918 116.734 33.4545 103.135 42.7956C89.5359 52.1367 82.0691 74.0407 86.4799 91.7098C90.8907 109.379 105.478 116.136 119.077 106.785C132.676 97.434 140.143 75.5401 135.732 57.8711ZM116.856 102.186C114.637 103.774 112.096 104.859 109.41 105.367C100.955 106.826 93.7327 100.737 91.074 89.8456C87.2439 74.4966 93.6716 55.4497 105.396 47.3952C107.603 45.8081 110.13 44.7159 112.802 44.1937C121.257 42.7348 128.469 48.8238 131.138 59.715C135.019 75.0842 128.591 94.1312 116.856 102.186Z" fill="#D1DAE0"/>
<path d="M87.6006 101.263L81.6806 108.453L73.3506 102.733L79.2606 95.6033C80.0006 94.5233 82.4606 94.9333 84.7706 96.5133C87.0806 98.0933 88.3406 100.203 87.6006 101.263Z" fill="#FAAB00"/>
<path d="M82.7208 111.003L52.8008 145.003L39.3408 135.763L70.8608 102.883C71.8608 101.353 75.4208 101.883 78.6908 104.183C81.9608 106.483 83.7708 109.473 82.7208 111.003Z" fill="#547DBA"/>
<path d="M52.795 144.978C53.9857 143.243 51.9386 139.769 48.2227 137.219C44.5069 134.669 40.5295 134.008 39.3388 135.743C38.1482 137.478 40.1953 140.952 43.9111 143.502C47.6269 146.052 51.6044 146.713 52.795 144.978Z" fill="#446CA9"/>
<path fill-rule="evenodd" clip-rule="evenodd" d="M115.184 71.6986C115.184 73.1365 115.359 75.0264 115.22 76.793C115.184 77.9331 114.886 79.0475 114.357 80.0592C114.075 80.5265 113.71 80.9374 113.274 81.266C112.719 81.6717 112.118 82.0158 111.487 82.2931C110.439 82.7348 109.432 83.2792 108.482 83.9057V87.023C108.457 87.6187 108.138 88.1682 107.635 88.4917L107.445 91.7374L104.523 90.0324C104.359 89.9143 104.261 89.7191 104.276 89.5188V86.3451C103.075 86.8586 102.422 88.3274 102.422 88.3274C102.422 88.3274 99.9933 86.9254 99.5414 86.6481C98.4578 85.9856 97.8107 84.5939 97.6104 82.5396L97.5693 82.0261L100.081 80.5779L101.822 79.5508L104.697 81.225C104.697 81.225 103.568 82.1391 104.184 82.0261C104.723 81.908 105.242 81.718 105.725 81.4561C106.49 81.0812 107.214 80.6344 107.887 80.1105C108.354 79.7562 108.785 79.3659 109.186 78.9345C110.264 77.8355 110.87 76.3616 110.881 74.8261C110.917 74.3382 110.804 73.8452 110.557 73.4241C110.47 73.2906 110.347 73.1827 110.198 73.1211C109.854 72.9927 109.474 72.967 109.114 73.0441L108.801 73.1006L108.287 73.2341C108.082 73.2906 107.876 73.3625 107.666 73.4344L106.89 73.7168L106.171 74.0095L105.555 74.2766L105.042 74.5026C103.948 74.9545 103.039 75.7659 102.474 76.8084C102.474 76.8084 99.906 75.3088 99.5979 75.1342C98.5091 74.5231 97.9648 73.08 97.9648 70.8358C97.9648 70.276 98.0059 69.7214 98.0932 69.1668C98.3705 67.4515 98.9765 65.7979 99.8701 64.3086C100.995 62.3622 102.499 60.6572 104.297 59.3066V56.7542C104.312 56.3998 104.436 56.0609 104.651 55.7785C104.785 55.5833 104.959 55.4241 105.165 55.3111L107.681 53.8578C107.856 53.7242 108.097 53.7037 108.292 53.8064L108.847 54.1351L111.163 55.4857C111.163 55.4857 110.573 56.1379 111.399 56.1071C111.949 56.0763 112.498 56.1842 113.002 56.4153C113.346 56.5745 115.878 58.0894 115.878 58.0894C115.22 58.603 114.866 59.4144 114.933 60.2464L114.979 60.7599L113.633 64.8683L110.757 63.225C110.567 61.9 110.013 61.2016 109.099 61.1194C108.683 61.0989 108.262 61.1656 107.871 61.3094C106.562 61.8949 102.422 69.6392 102.874 69.8446C103.347 70.009 103.855 70.0295 104.338 69.9011L104.708 69.8241C105.185 69.706 105.653 69.5519 106.11 69.367L106.937 69.0332L107.871 68.6327C110.434 67.5439 112.293 67.2615 113.448 67.7904C113.787 67.9445 116.324 69.4646 116.324 69.4646C115.621 69.9936 115.195 70.8153 115.184 71.6986V71.6986Z" fill="#008BC2"/>
<path d="M109.473 58.6134L107.173 60.9706L104.297 59.2964V56.7646C104.312 56.4102 104.436 56.0713 104.651 55.7888L109.473 58.6134Z" fill="#0079A8"/>
<path d="M113.633 64.9044L110.758 63.225C110.568 61.9001 110.526 56.138 111.353 56.1072C111.903 56.0764 112.452 56.1842 112.956 56.4153C113.3 56.5745 115.831 58.0895 115.831 58.0895L113.633 64.9044Z" fill="#0079A8"/>
<path d="M108.472 86.2937V87.0538C108.436 87.6392 108.128 88.1733 107.635 88.4917L107.445 91.7374L104.523 90.0324C104.359 89.9143 104.261 89.7191 104.276 89.5188V86.3451C103.075 86.8586 102.422 88.3274 102.422 88.3274C102.422 88.3274 99.9933 86.9254 99.5414 86.6481C98.4578 85.9856 97.8107 84.5939 97.6104 82.5397L97.5693 82.0261L101.103 84.0803L108.472 86.2937V86.2937Z" fill="#0079A8"/>
<path d="M115.22 76.7931C114.465 78.9294 113.181 80.8347 111.482 82.3292C110.583 83.1046 109.571 83.7363 108.477 84.1985C107.363 84.6812 106.171 84.9585 104.959 85.0202C104.959 85.0202 103.568 82.1186 104.189 82.0056C104.728 81.8875 105.247 81.6975 105.73 81.4356C106.495 81.0607 107.219 80.6139 107.892 80.0901C108.359 79.7357 108.791 79.3454 109.191 78.914C110.27 77.815 110.876 76.3411 110.886 74.8056C110.922 74.3177 110.809 73.8247 110.562 73.4036C110.737 72.8901 110.953 72.3919 111.204 71.9092L115.22 76.7931V76.7931Z" fill="#0079A8"/>
<path fill-rule="evenodd" clip-rule="evenodd" d="M110.501 55.5372L107.984 56.9854C107.491 57.309 107.183 57.8482 107.147 58.4337V60.9655C105.35 62.3212 103.845 64.0211 102.72 65.9675C101.519 67.9395 100.861 70.194 100.815 72.4999C100.815 74.7595 101.36 76.1872 102.448 76.7931C103.537 77.3991 105.365 77.1937 107.892 76.1666L109.027 75.6531L109.746 75.3603L110.501 75.0933C110.711 75.0214 110.922 74.9546 111.122 74.8981L111.636 74.7646L111.949 74.7081C112.308 74.626 112.683 74.6516 113.033 74.78C113.49 74.9854 113.716 75.5555 113.716 76.4902C113.716 78.4879 112.719 80.2442 110.722 81.7592C110.049 82.283 109.325 82.7349 108.56 83.1098C107.019 83.9007 106.228 83.8083 105.673 83.5053C105.119 83.2023 104.785 82.4371 104.646 81.2046L100.394 83.6593L100.435 84.1729C100.635 86.2271 101.282 87.5983 102.366 88.2813C103.45 88.9643 105.006 88.8257 107.101 87.9732V91.1521C107.101 91.6656 107.476 91.8967 107.938 91.6297L110.455 90.1763C110.948 89.8528 111.261 89.3187 111.292 88.7281V85.616C113.207 84.214 114.809 82.4319 116.011 80.3829C117.295 78.267 117.983 75.8482 117.999 73.3729C117.999 71.3187 117.423 69.9937 116.268 69.4699C115.112 68.9461 113.253 69.2234 110.691 70.3121L109.761 70.7076L108.986 71.0311C108.529 71.216 108.061 71.37 107.584 71.483L107.209 71.56C106.726 71.6884 106.223 71.6679 105.75 71.5087C105.298 71.3033 105.073 70.7178 105.073 69.7575C105.073 67.7598 106.012 66.024 107.892 64.5501C108.78 63.9133 109.736 63.3843 110.747 62.9735C112.401 62.4086 113.366 63.0454 113.639 64.889L117.855 62.4548L117.809 61.9412C117.588 59.887 116.925 58.6031 115.831 58.0844C114.738 57.5658 113.243 57.7096 111.348 58.5107V56.0148C111.348 55.5013 110.973 55.2702 110.511 55.5372H110.501V55.5372Z" fill="#009DDB"/>
</svg>
